<svg width="20" height="20" viewBox="0 0 20 20" fill="none" xmlns="http://www.w3.org/2000/svg">
<path d="M9.16663 14.167H10.8333V10.8337H14.1666V9.16699H10.8333V5.83366H9.16663V9.16699H5.83329V10.8337H9.16663V14.167ZM9.99996 18.3337C8.84718 18.3337 7.76385 18.1184 6.74996 17.6878C5.73607 17.2434 4.85413 16.6462 4.10413 15.8962C3.35413 15.1462 2.7569 14.2642 2.31246 13.2503C1.8819 12.2364 1.66663 11.1531 1.66663 10.0003C1.66663 8.84755 1.8819 7.76421 2.31246 6.75033C2.7569 5.73644 3.35413 4.85449 4.10413 4.10449C4.85413 3.35449 5.73607 2.76421 6.74996 2.33366C7.76385 1.88921 8.84718 1.66699 9.99996 1.66699C11.1527 1.66699 12.2361 1.88921 13.25 2.33366C14.2638 2.76421 15.1458 3.35449 15.8958 4.10449C16.6458 4.85449 17.2361 5.73644 17.6666 6.75033C18.1111 7.76421 18.3333 8.84755 18.3333 10.0003C18.3333 11.1531 18.1111 12.2364 17.6666 13.2503C17.2361 14.2642 16.6458 15.1462 15.8958 15.8962C15.1458 16.6462 14.2638 17.2434 13.25 17.6878C12.2361 18.1184 11.1527 18.3337 9.99996 18.3337ZM9.99996 16.667C11.8611 16.667 13.4375 16.0212 14.7291 14.7295C16.0208 13.4378 16.6666 11.8614 16.6666 10.0003C16.6666 8.13921 16.0208 6.56283 14.7291 5.27116C13.4375 3.97949 11.8611 3.33366 9.99996 3.33366C8.13885 3.33366 6.56246 3.97949 5.27079 5.27116C3.97913 6.56283 3.33329 8.13921 3.33329 10.0003C3.33329 11.8614 3.97913 13.4378 5.27079 14.7295C6.56246 16.0212 8.13885 16.667 9.99996 16.667Z" fill="#121926"/>
</svg>
