<svg width="20" height="20" viewBox="0 0 20 20" fill="none" xmlns="http://www.w3.org/2000/svg">
<path d="M9.40833 12.742C9.37249 12.7816 9.33909 12.8233 9.30833 12.867C9.27679 12.9134 9.25157 12.9639 9.23333 13.017C9.2093 13.0642 9.19245 13.1148 9.18333 13.167C9.17924 13.2225 9.17924 13.2782 9.18333 13.3337C9.18051 13.443 9.20334 13.5514 9.24999 13.6503C9.28742 13.7537 9.34713 13.8477 9.4249 13.9254C9.50266 14.0032 9.59658 14.0629 9.69999 14.1003C9.79974 14.1444 9.9076 14.1672 10.0167 14.1672C10.1257 14.1672 10.2336 14.1444 10.3333 14.1003C10.4367 14.0629 10.5307 14.0032 10.6084 13.9254C10.6862 13.8477 10.7459 13.7537 10.7833 13.6503C10.8203 13.549 10.8373 13.4415 10.8333 13.3337C10.834 13.224 10.8129 13.1153 10.7715 13.0137C10.73 12.9122 10.6689 12.8199 10.5917 12.742C10.5142 12.6639 10.422 12.6019 10.3205 12.5596C10.2189 12.5173 10.11 12.4955 9.99999 12.4955C9.88998 12.4955 9.78106 12.5173 9.67951 12.5596C9.57796 12.6019 9.4858 12.6639 9.40833 12.742ZM9.99999 1.66699C8.35182 1.66699 6.74065 2.15573 5.37024 3.07141C3.99983 3.98709 2.93173 5.28858 2.301 6.8113C1.67027 8.33401 1.50524 10.0096 1.82678 11.6261C2.14833 13.2426 2.942 14.7274 4.10744 15.8929C5.27287 17.0583 6.75773 17.852 8.37424 18.1735C9.99075 18.4951 11.6663 18.3301 13.189 17.6993C14.7117 17.0686 16.0132 16.0005 16.9289 14.6301C17.8446 13.2597 18.3333 11.6485 18.3333 10.0003C18.3333 8.90598 18.1178 7.82234 17.699 6.8113C17.2802 5.80025 16.6664 4.88159 15.8925 4.10777C15.1187 3.33395 14.2001 2.72012 13.189 2.30133C12.178 1.88254 11.0943 1.66699 9.99999 1.66699ZM9.99999 16.667C8.68145 16.667 7.39252 16.276 6.29619 15.5435C5.19986 14.8109 4.34538 13.7697 3.8408 12.5515C3.33621 11.3334 3.20419 9.99293 3.46143 8.69972C3.71866 7.40652 4.3536 6.21863 5.28595 5.28628C6.2183 4.35393 7.40619 3.71899 8.69939 3.46176C9.9926 3.20452 11.333 3.33654 12.5512 3.84113C13.7694 4.34571 14.8106 5.2002 15.5431 6.29652C16.2757 7.39285 16.6667 8.68178 16.6667 10.0003C16.6667 11.7684 15.9643 13.4641 14.714 14.7144C13.4638 15.9646 11.7681 16.667 9.99999 16.667ZM9.99999 5.83366C9.56088 5.83338 9.12944 5.94876 8.74908 6.16819C8.36873 6.38763 8.05288 6.70338 7.83333 7.08366C7.77303 7.17851 7.73255 7.28457 7.71431 7.39547C7.69606 7.50637 7.70044 7.61982 7.72718 7.72898C7.75392 7.83814 7.80247 7.94077 7.8699 8.03069C7.93733 8.1206 8.02225 8.19595 8.11955 8.2522C8.21686 8.30844 8.32453 8.34442 8.4361 8.35797C8.54768 8.37153 8.66083 8.36237 8.76877 8.33106C8.87671 8.29974 8.9772 8.24692 9.0642 8.17576C9.1512 8.1046 9.2229 8.01658 9.27499 7.91699C9.34841 7.78982 9.45413 7.68431 9.58145 7.61114C9.70876 7.53797 9.85315 7.49974 9.99999 7.50033C10.221 7.50033 10.433 7.58812 10.5892 7.7444C10.7455 7.90068 10.8333 8.11265 10.8333 8.33366C10.8333 8.55467 10.7455 8.76663 10.5892 8.92291C10.433 9.0792 10.221 9.16699 9.99999 9.16699C9.77898 9.16699 9.56702 9.25479 9.41074 9.41107C9.25446 9.56735 9.16666 9.77931 9.16666 10.0003V10.8337C9.16666 11.0547 9.25446 11.2666 9.41074 11.4229C9.56702 11.5792 9.77898 11.667 9.99999 11.667C10.221 11.667 10.433 11.5792 10.5892 11.4229C10.7455 11.2666 10.8333 11.0547 10.8333 10.8337V10.6837C11.3845 10.4837 11.8478 10.0963 12.1423 9.58938C12.4368 9.08242 12.5438 8.48807 12.4445 7.91023C12.3452 7.3324 12.046 6.80784 11.5992 6.42826C11.1523 6.04867 10.5863 5.83821 9.99999 5.83366Z" fill="#697586"/>
</svg>
