<svg width="24" height="24" viewBox="0 0 24 24" fill="none" xmlns="http://www.w3.org/2000/svg">
<path d="M11.9976 2.15957C15.197 2.15957 15.5809 2.17157 16.8454 2.22915C17.6064 2.23814 18.3602 2.37802 19.0738 2.64267C19.5947 2.83498 20.0659 3.14164 20.4527 3.54009C20.8512 3.92687 21.1578 4.39807 21.3501 4.91902C21.6148 5.63258 21.7547 6.38636 21.7636 7.14737C21.8212 8.41432 21.8356 8.79824 21.8356 11.9976C21.8356 15.197 21.8236 15.5809 21.766 16.8454C21.7571 17.6064 21.6172 18.3602 21.3525 19.0738C21.1528 19.591 20.8471 20.0607 20.4551 20.4527C20.0631 20.8447 19.5934 21.1504 19.0762 21.3501C18.3626 21.6148 17.6088 21.7547 16.8478 21.7636C15.5833 21.8212 15.2034 21.8332 12 21.8332C8.79664 21.8332 8.41672 21.8212 7.15217 21.7636C6.39116 21.7547 5.63738 21.6148 4.92381 21.3501C4.40287 21.1578 3.93167 20.8512 3.54489 20.4527C3.14644 20.0659 2.83978 19.5947 2.64747 19.0738C2.38281 18.3602 2.24293 17.6064 2.23395 16.8454C2.17396 15.5809 2.15957 15.201 2.15957 11.9976C2.15957 8.79424 2.17157 8.41432 2.22915 7.14977C2.23813 6.38876 2.37802 5.63498 2.64267 4.92142C2.83568 4.40025 3.14317 3.92903 3.54249 3.54249C3.92927 3.14404 4.40047 2.83738 4.92142 2.64507C5.63498 2.38042 6.38876 2.24053 7.14977 2.23155C8.41432 2.17397 8.79824 2.15957 11.9976 2.15957ZM11.9976 0C8.73905 0 8.33033 0.0135973 7.05139 0.0719856C6.05577 0.0930796 5.07088 0.282377 4.13837 0.631874C3.33834 0.932969 2.61344 1.40459 2.014 2.014C1.40373 2.6132 0.931273 3.33813 0.629474 4.13837C0.279978 5.07088 0.09068 6.05577 0.0695861 7.05139C0.0135973 8.33033 0 8.73905 0 11.9976C0 15.2561 0.0135973 15.6649 0.0719856 16.9438C0.0930796 17.9394 0.282377 18.9243 0.631874 19.8568C0.933672 20.6571 1.40613 21.382 2.0164 21.9812C2.6156 22.5915 3.34052 23.0639 4.14077 23.3657C5.07328 23.7152 6.05817 23.9045 7.05379 23.9256C8.33353 23.984 8.74145 23.9976 12 23.9976C15.2585 23.9976 15.6673 23.984 16.9462 23.9256C17.9418 23.9045 18.9267 23.7152 19.8592 23.3657C20.6559 23.0569 21.3794 22.5854 21.9836 21.9812C22.5878 21.377 23.0593 20.6535 23.3681 19.8568C23.7176 18.9243 23.9069 17.9394 23.928 16.9438C23.9864 15.6641 24 15.2561 24 11.9976C24 8.73905 23.9864 8.33033 23.928 7.05139C23.9069 6.05577 23.7176 5.07088 23.3681 4.13837C23.0663 3.33813 22.5939 2.6132 21.9836 2.014C21.3844 1.40373 20.6595 0.931273 19.8592 0.629474C18.9267 0.279978 17.9418 0.09068 16.9462 0.0695861C15.6649 0.0135973 15.2561 0 11.9976 0Z" fill="#121926"/>
<path d="M11.9976 5.83883C10.7795 5.83883 9.58878 6.20004 8.57597 6.87677C7.56317 7.55351 6.77378 8.51537 6.30764 9.64074C5.8415 10.7661 5.71953 12.0044 5.95717 13.1991C6.19481 14.3938 6.78137 15.4912 7.64269 16.3525C8.50401 17.2138 9.6014 17.8004 10.7961 18.038C11.9908 18.2757 13.2291 18.1537 14.3545 17.6876C15.4798 17.2214 16.4417 16.432 17.1184 15.4192C17.7952 14.4064 18.1564 13.2157 18.1564 11.9976C18.1564 10.3642 17.5075 8.79769 16.3525 7.64269C15.1975 6.4877 13.631 5.83883 11.9976 5.83883ZM11.9976 15.9968C11.2066 15.9968 10.4334 15.7623 9.77576 15.3228C9.1181 14.8834 8.60551 14.2588 8.30282 13.528C8.00013 12.7973 7.92093 11.9932 8.07524 11.2174C8.22955 10.4416 8.61044 9.72904 9.16974 9.16974C9.72904 8.61044 10.4416 8.22955 11.2174 8.07524C11.9932 7.92093 12.7973 8.00013 13.528 8.30282C14.2588 8.60551 14.8834 9.1181 15.3228 9.77577C15.7623 10.4334 15.9968 11.2066 15.9968 11.9976C15.9968 13.0583 15.5755 14.0755 14.8255 14.8255C14.0755 15.5755 13.0583 15.9968 11.9976 15.9968Z" fill="#121926"/>
<path d="M18.4019 7.03299C19.1971 7.03299 19.8416 6.38841 19.8416 5.59328C19.8416 4.79815 19.1971 4.15357 18.4019 4.15357C17.6068 4.15357 16.9622 4.79815 16.9622 5.59328C16.9622 6.38841 17.6068 7.03299 18.4019 7.03299Z" fill="#121926"/>
</svg>
